<svg id="Layer_1" data-name="Layer 1" xmlns="http://www.w3.org/2000/svg" width="39.701" height="39.701" viewBox="0 0 39.701 39.701"><defs><style>.cls-1{fill:#111;}</style></defs><title>linkedin_icon_1</title><path class="cls-1" d="M0,0V39.7H39.7V0ZM12.191,32.752a.916.916,0,0,1-.916.916H7.38a.916.916,0,0,1-.916-.916V16.132a.915.915,0,0,1,.916-.915h3.9a.915.915,0,0,1,.916.915ZM9.321,12.675a3.323,3.323,0,1,1,3.337-3.314A3.313,3.313,0,0,1,9.321,12.675ZM33.7,21.054V33.292a.378.378,0,0,1-.38.379H28.344a.381.381,0,0,1-.379-.381V23.027a3.213,3.213,0,0,0-3.25-3.212,3.239,3.239,0,0,0-3.176,3.253V33.289a.38.38,0,0,1-.38.38H16.193a.38.38,0,0,1-.38-.38V15.6a.38.38,0,0,1,.38-.381h4.86a.381.381,0,0,1,.38.381v2.04a.3.3,0,0,1,.052.006,5.616,5.616,0,0,1,4.91-2.9h1A6.309,6.309,0,0,1,33.7,21.054Z"/></svg>
