<?xml version="1.0" standalone="no"?>
<!DOCTYPE svg PUBLIC "-//W3C//DTD SVG 20010904//EN"
 "http://www.w3.org/TR/2001/REC-SVG-20010904/DTD/svg10.dtd">
<svg version="1.0" xmlns="http://www.w3.org/2000/svg"
 width="700.000000pt" height="700.000000pt" viewBox="0 0 700.000000 700.000000"
 preserveAspectRatio="xMidYMid meet">
<metadata>
Created by potrace 1.11, written by Peter Selinger 2001-2013
</metadata>
<g transform="translate(0.000000,700.000000) scale(0.100000,-0.100000)"
fill="#000000" stroke="none">
<path d="M4189 6678 c-91 -79 -189 -163 -218 -188 -30 -25 -61 -52 -70 -60 -9
-9 -47 -43 -86 -75 -38 -33 -72 -62 -75 -65 -3 -3 -36 -32 -75 -65 -38 -32
-77 -66 -86 -75 -9 -8 -38 -33 -64 -55 -26 -22 -53 -45 -59 -50 -6 -6 -76 -66
-156 -134 -80 -68 -149 -129 -155 -135 -5 -6 -35 -31 -65 -56 -30 -25 -57 -47
-60 -51 -4 -5 -216 -188 -350 -303 -63 -53 -246 -212 -258 -223 -7 -7 -34 -29
-60 -50 -26 -21 -51 -43 -57 -49 -5 -7 -44 -40 -85 -75 -41 -35 -77 -66 -80
-69 -5 -5 -120 -105 -295 -255 -151 -129 -730 -630 -930 -804 -16 -14 -72 -62
-123 -105 -94 -80 -96 -84 -62 -116 3 -3 61 -69 128 -147 68 -79 126 -143 129
-143 5 0 106 82 123 100 3 3 52 46 110 95 58 50 118 102 135 116 16 15 104 91
195 169 91 78 190 164 220 190 30 26 129 112 220 190 91 78 192 165 224 193
33 29 69 60 80 70 46 39 130 112 321 277 110 95 225 194 255 220 30 26 78 67
105 90 28 24 77 66 110 95 33 29 134 116 225 195 91 78 179 154 195 169 17 14
93 80 170 146 77 66 142 122 145 125 3 3 37 32 75 65 39 33 75 64 81 70 6 5
37 33 69 60 114 97 310 267 335 289 14 12 77 66 140 121 63 54 119 101 123
105 5 4 2 14 -5 21 -7 8 -56 64 -108 124 -52 61 -105 121 -117 135 -12 14 -28
33 -36 43 -12 17 -26 7 -178 -125z"/>
<path d="M4115 4659 c-98 -6 -185 -15 -235 -24 -14 -3 -39 -7 -57 -10 -75 -12
-245 -61 -298 -85 -11 -5 -45 -19 -75 -31 -30 -13 -67 -31 -82 -41 -14 -10
-29 -18 -32 -18 -21 0 -169 -113 -235 -178 -197 -196 -294 -438 -294 -732 0
-130 8 -198 34 -297 91 -348 352 -585 817 -742 155 -52 278 -84 607 -160 437
-101 619 -156 781 -236 302 -150 427 -348 418 -664 -10 -384 -253 -648 -679
-736 -182 -37 -485 -39 -670 -4 -27 5 -66 12 -85 15 -66 10 -245 75 -327 119
-306 162 -499 464 -549 855 -10 86 16 78 -275 78 l-260 -1 6 -56 c16 -156 25
-206 59 -336 45 -169 147 -376 249 -508 228 -294 544 -480 963 -568 105 -22
106 -22 253 -40 106 -12 427 -15 511 -5 30 4 73 9 95 12 39 5 50 7 125 19 19
3 64 13 100 21 36 9 70 17 75 19 6 1 17 4 25 7 8 3 44 16 80 28 347 117 642
376 745 655 10 28 22 55 26 60 10 14 48 187 58 264 9 67 6 296 -4 346 -3 17
-8 48 -11 70 -16 111 -109 352 -149 385 -8 7 -15 17 -15 22 0 14 -39 61 -118
141 -82 83 -223 179 -357 242 -133 63 -123 59 -260 104 -161 54 -269 82 -525
136 -537 114 -691 156 -860 237 -290 138 -413 344 -379 630 16 129 98 291 184
359 11 9 31 27 45 39 79 69 253 140 435 176 91 18 357 24 475 11 54 -7 139
-23 220 -42 41 -9 162 -60 216 -90 152 -85 267 -206 351 -370 33 -63 69 -156
79 -200 1 -5 9 -39 18 -75 9 -36 16 -77 16 -92 0 -20 5 -28 18 -29 79 -3 484
0 488 4 6 5 -15 120 -40 227 -130 544 -464 892 -986 1025 -52 13 -110 27 -127
30 -18 3 -47 7 -65 10 -121 21 -379 33 -523 24z"/>
</g>
</svg>
